<svg width="30" height="36" viewBox="0 0 30 36" fill="none" xmlns="http://www.w3.org/2000/svg">
<path d="M7.03424 4.11585V0H9.53191V1.73299H13.2784V0H15.7761V1.73299H19.5226V0H22.0203V4.11585H7.03424Z" fill="#3A82F7"/>
<path fill-rule="evenodd" clip-rule="evenodd" d="M0.0328471 6.40247C0.0328471 6.40247 -0.0410657 10.015 0.0328574 14.7329C0.039353 15.1475 0.0443686 15.5688 0.049447 15.9955C0.154819 24.8477 0.28728 35.9756 14.2305 35.9756C28.8458 35.9756 29.0545 28.2699 29.0545 13.6916L29.0545 6.40247H0.0328471ZM26.6322 8.84149H2.42727C2.41829 10.3189 2.41852 12.372 2.45491 14.6945C2.4612 15.0958 2.46644 15.4972 2.47167 15.8979C2.52811 20.2211 2.58355 24.4686 3.945 27.8095C4.64798 29.5346 5.66586 30.9032 7.1684 31.8678C8.68774 32.8431 10.9082 33.5366 14.2305 33.5366C17.706 33.5366 20.0731 33.0731 21.7097 32.3237C23.2694 31.6094 24.2631 30.5932 24.9607 29.2015C25.6984 27.7299 26.1439 25.7561 26.381 23.105C26.6174 20.4614 26.6322 17.3593 26.6322 13.6916L26.6322 8.84149Z" fill="url(#paint0_linear_384_3040)"/>
<path d="M9.32804 20.8842H4.74048C4.74048 20.8842 4.76916 23.924 5.65799 26.2195C6.54682 28.5151 9.32804 30.6403 9.32804 30.6403V20.8842Z" fill="#F2CB80"/>
<path d="M17.4327 16.7683H11.6218V31.25H17.4327V16.7683Z" fill="url(#paint1_radial_384_3040)"/>
<path d="M24.467 12.8049H19.7265V30.6402C19.7265 30.6402 24.467 29.4896 24.467 23.4486V12.8049Z" fill="#D8AE5E"/>
<defs>
<linearGradient id="paint0_linear_384_3040" x1="29.0545" y1="5.8226" x2="0.0606888" y2="34.5871" gradientUnits="userSpaceOnUse">
<stop stop-color="#DEB25F"/>
<stop offset="1" stop-color="#F3CC81"/>
</linearGradient>
<radialGradient id="paint1_radial_384_3040" cx="0" cy="0" r="1" gradientUnits="userSpaceOnUse" gradientTransform="translate(17.4327 16.7683) rotate(111.864) scale(15.6041 6.25582)">
<stop stop-color="#D8AE5E"/>
<stop offset="1" stop-color="#F4CD83"/>
</radialGradient>
</defs>
</svg>
